# Rhino

g object_1
v 1128.652099609375 567.6344604492188 -14025
v 1127.77734375 567.6663818359375 -14025
v 1126.902099609375 567.6770629882813 -14025
v 1162.902099609375 531.6771240234375 -14025
v 1162.763793945313 534.8292236328125 -14025
v 1162.33251953125 538.0553588867188 -14025
v 1161.58740234375 541.3168334960938 -14025
v 1160.514404296875 544.5693969726563 -14025
v 1159.107421875 547.7647094726563 -14025
v 1157.370239257813 550.8524169921875 -14025
v 1155.316284179688 553.7821655273438 -14025
v 1152.96923828125 556.5064697265625 -14025
v 1150.3623046875 558.9830932617188 -14025
v 1147.535766601563 561.1770629882813 -14025
v 1144.536254882813 563.0623168945313 -14025
v 1141.4130859375 564.6229248046875 -14025
v 1138.216552734375 565.8528442382813 -14025
v 1134.9951171875 566.7555541992188 -14025
v 1131.793701171875 567.3431396484375 -14025
v 1126.902099609375 549.6770629882813 -14025
v 1126.902099609375 531.6771240234375 -14025
v 1128.652099609375 531.6771240234375 -14025
v 1145.777099609375 531.6771240234375 -14025
v 1128.652099609375 567.6344604492188 -14095
v 1127.77734375 567.6663818359375 -14095
v 1126.902099609375 567.6770629882813 -14095
v 1162.902099609375 531.6771240234375 -14095
v 1162.763793945313 534.8292236328125 -14095
v 1162.33251953125 538.0553588867188 -14095
v 1161.58740234375 541.3168334960938 -14095
v 1160.514404296875 544.5693969726563 -14095
v 1159.107421875 547.7647094726563 -14095
v 1157.370239257813 550.8524169921875 -14095
v 1155.316284179688 553.7821655273438 -14095
v 1152.96923828125 556.5064697265625 -14095
v 1150.3623046875 558.9830932617188 -14095
v 1147.535766601563 561.1770629882813 -14095
v 1144.536254882813 563.0623168945313 -14095
v 1141.4130859375 564.6229248046875 -14095
v 1138.216552734375 565.8528442382813 -14095
v 1134.9951171875 566.7555541992188 -14095
v 1131.793701171875 567.3431396484375 -14095
v 1126.902099609375 549.6770629882813 -14095
v 1126.902099609375 531.6771240234375 -14095
v 1128.652099609375 531.6771240234375 -14095
v 1145.777099609375 531.6771240234375 -14095
v 1128.652099609375 567.6344604492188 -14095
v 1128.652099609375 567.6344604492188 -14025
v 1127.77734375 567.6663818359375 -14095
v 1127.77734375 567.6663818359375 -14025
v 1126.902099609375 567.6770629882813 -14095
v 1126.902099609375 567.6770629882813 -14025
v 1128.652099609375 567.6344604492188 -14060
v 1126.902099609375 567.6770629882813 -14095
v 1126.902099609375 567.6770629882813 -14025
v 1126.902099609375 531.6771240234375 -14095
v 1126.902099609375 531.6771240234375 -14025
v 1126.902099609375 549.6770629882813 -14095
v 1126.902099609375 531.6771240234375 -14060
v 1126.902099609375 549.6770629882813 -14025
v 1126.902099609375 531.6771240234375 -14095
v 1126.902099609375 531.6771240234375 -14025
v 1162.902099609375 531.6771240234375 -14095
v 1162.902099609375 531.6771240234375 -14025
v 1126.902099609375 531.6771240234375 -14060
v 1128.652099609375 531.6771240234375 -14095
v 1145.777099609375 531.6771240234375 -14095
v 1145.777099609375 531.6771240234375 -14025
v 1128.652099609375 531.6771240234375 -14025
v 1162.902099609375 531.6771240234375 -14095
v 1162.902099609375 531.6771240234375 -14025
v 1162.763793945313 534.8292236328125 -14095
v 1162.763793945313 534.8292236328125 -14025
v 1162.33251953125 538.0553588867188 -14095
v 1162.33251953125 538.0553588867188 -14025
v 1161.58740234375 541.3168334960938 -14095
v 1161.58740234375 541.3168334960938 -14025
v 1160.514404296875 544.5693969726563 -14095
v 1160.514404296875 544.5693969726563 -14025
v 1159.107421875 547.7647094726563 -14095
v 1159.107421875 547.7647094726563 -14025
v 1157.370239257813 550.8524169921875 -14095
v 1157.370239257813 550.8524169921875 -14025
v 1155.316284179688 553.7821655273438 -14095
v 1155.316284179688 553.7821655273438 -14025
v 1152.96923828125 556.5064697265625 -14095
v 1152.96923828125 556.5064697265625 -14025
v 1150.3623046875 558.9830932617188 -14095
v 1150.3623046875 558.9830932617188 -14025
v 1147.535766601563 561.1770629882813 -14095
v 1147.535766601563 561.1770629882813 -14025
v 1144.536254882813 563.0623168945313 -14095
v 1144.536254882813 563.0623168945313 -14025
v 1141.4130859375 564.6229248046875 -14095
v 1141.4130859375 564.6229248046875 -14025
v 1138.216552734375 565.8528442382813 -14095
v 1138.216552734375 565.8528442382813 -14025
v 1134.9951171875 566.7555541992188 -14095
v 1134.9951171875 566.7555541992188 -14025
v 1131.793701171875 567.3431396484375 -14095
v 1131.793701171875 567.3431396484375 -14025
v 1128.652099609375 567.6344604492188 -14095
v 1128.652099609375 567.6344604492188 -14025
v 1128.652099609375 567.6344604492188 -14060
vt 0.01507138181477785 0.2594095468521118
vt 0.008823179639875889 0.2596375644207001
vt 0.002571429125964642 0.2597135603427887
vt 0.2597135603427887 0.002571421442553401
vt 0.2587260007858276 0.02508616633713245
vt 0.2556454837322235 0.0481300875544548
vt 0.250323474407196 0.07142636924982071
vt 0.2426588237285614 0.09465895593166351
vt 0.2326093763113022 0.1174827665090561
vt 0.220200389623642 0.1395374983549118
vt 0.2055293172597885 0.160464346408844
vt 0.1887653321027756 0.1799239069223404
vt 0.1701436787843704 0.1976140141487122
vt 0.1499547809362412 0.2132850289344788
vt 0.1285293251276016 0.2267514616250992
vt 0.1062209978699684 0.237898513674736
vt 0.08338846266269684 0.2466834485530853
vt 0.06037843972444534 0.2531316578388214
vt 0.03751150518655777 0.2573286890983582
vt 0.002571429125964642 0.1311424970626831
vt 0.002571429125964642 0.002571421442553401
vt 0.01507138181477785 0.002571421442553401
vt 0.1373924762010574 0.002571421442553401
vt 0.02749210223555565 0.7594095468521118
vt 0.02127879671752453 0.7596375346183777
vt 0.01506196055561304 0.7597135305404663
vt 0.2707679569721222 0.5025714039802551
vt 0.2697859108448029 0.5250861644744873
vt 0.2667226195335388 0.5481300950050354
vt 0.2614303231239319 0.5714263916015625
vt 0.2538084983825684 0.5946589708328247
vt 0.2438151687383652 0.6174827814102173
vt 0.2314754873514175 0.639537513256073
vt 0.2168863415718079 0.660464346408844
vt 0.2002159953117371 0.6799238920211792
vt 0.1816983371973038 0.6976140141487122
vt 0.1616221815347672 0.7132850289344788
vt 0.1403163820505142 0.726751446723938
vt 0.118132658302784 0.7378985285758972
vt 0.09542763978242874 0.7466834783554077
vt 0.07254612445831299 0.753131628036499
vt 0.04980690032243729 0.7573286890983582
vt 0.01506196055561304 0.6311424970626831
vt 0.01506196055561304 0.5025714039802551
vt 0.02749210223555565 0.5025714039802551
vt 0.1491300463676453 0.5025714039802551
vt 0 0.5
vt 0 0.99853515625
vt 0.005520088598132134 0.5
vt 0.005520088598132134 0.99853515625
vt 0.01104004960507155 0.5
vt 0.01104004960507155 0.99853515625
vt 0 0.749267578125
vt 0.2747898697853088 0.5
vt 0.2747898697853088 0.99853515625
vt 0.53046715259552 0.5
vt 0.53046715259552 0.99853515625
vt 0.4026285111904144 0.5
vt 0.53046715259552 0.749267578125
vt 0.4026285111904144 0.99853515625
vt 0.2685993313789368 0
vt 0.2685993313789368 0.49853515625
vt 0.525741457939148 0
vt 0.525741457939148 0.49853515625
vt 0.2685993313789368 0.249267578125
vt 0.2810992896556854 0
vt 0.4034203886985779 0
vt 0.4034203886985779 0.49853515625
vt 0.2810992896556854 0.49853515625
vt 0.53193199634552 0
vt 0.53193199634552 0.5
vt 0.5562945008277893 0
vt 0.5562945008277893 0.5
vt 0.5806570053100586 0
vt 0.5806570053100586 0.5
vt 0.6050194501876831 0
vt 0.6050194501876831 0.5
vt 0.6293819546699524 0
vt 0.6293819546699524 0.5
vt 0.6537444591522217 0
vt 0.6537444591522217 0.5
vt 0.6781069040298462 0
vt 0.6781069040298462 0.5
vt 0.7024694085121155 0
vt 0.7024694085121155 0.5
vt 0.7268319129943848 0
vt 0.7268319129943848 0.5
vt 0.7511943578720093 0
vt 0.7511943578720093 0.5
vt 0.7755568623542786 0
vt 0.7755568623542786 0.5
vt 0.7999193668365479 0
vt 0.7999193668365479 0.5
vt 0.8242818117141724 0
vt 0.8242818117141724 0.5
vt 0.8486443161964417 0
vt 0.8486443161964417 0.5
vt 0.8730068206787109 0
vt 0.8730068206787109 0.5
vt 0.8973692655563355 0
vt 0.8973692655563355 0.5
vt 0.9217317700386047 0
vt 0.9217317700386047 0.5
vt 0.9217317700386047 0.25
vn 0 0 1
vn 0 0 1
vn 0 0 1
vn 0 0 1
vn 0 0 1
vn 0 0 1
vn 0 0 1
vn 0 0 1
vn 0 0 1
vn 0 0 1
vn 0 0 1
vn 0 0 1
vn 0 0 1
vn 0 0 1
vn 0 0 1
vn 0 0 1
vn 0 0 1
vn 0 0 1
vn 0 0 1
vn 0 0 1
vn 0 0 1
vn 0 0 1
vn 0 0 1
vn 0 0 -1
vn 0 0 -1
vn 0 0 -1
vn 0 0 -1
vn 0 0 -1
vn 0 0 -1
vn 0 0 -1
vn 0 0 -1
vn 0 0 -1
vn 0 0 -1
vn 0 0 -1
vn 0 0 -1
vn 0 0 -1
vn 0 0 -1
vn 0 0 -1
vn 0 0 -1
vn 0 0 -1
vn 0 0 -1
vn 0 0 -1
vn 0 0 -1
vn 0 0 -1
vn 0 0 -1
vn 0 0 -1
vn 0.0486111119389534 0.9988178014755249 0
vn 0.0486111119389534 0.9988178014755249 0
vn 0.0243124607950449 0.9997044205665588 0
vn 0.0243124607950449 0.9997044205665588 0
vn 6.345550034861022e-14 1 0
vn 6.345550034861022e-14 1 0
vn 0.0486111119389534 0.9988178014755249 0
vn -1 7.105427357601002e-15 0
vn -1 7.105427357601002e-15 0
vn -1 7.105427357601002e-15 0
vn -1 7.105427357601002e-15 0
vn -1 7.105427357601002e-15 0
vn -1 5.329070518200751e-15 0
vn -1 7.105427357601002e-15 0
vn 1.307398633798584e-12 -1 0
vn 1.307398633798584e-12 -1 0
vn -1.953992523340276e-14 -1 0
vn -1.953992523340276e-14 -1 0
vn 1.335820343228988e-12 -1 0
vn 1.307398633798584e-12 -1 0
vn -1.953992523340276e-14 -1 0
vn -1.953992523340276e-14 -1 0
vn 1.307398633798584e-12 -1 0
vn 1 1.960190094008746e-15 0
vn 1 1.960190094008746e-15 0
vn 0.9961594343185425 0.08755758404731751 0
vn 0.9961594343185425 0.08755758404731751 0
vn 0.9841797351837158 0.1771730780601502 0
vn 0.9841797351837158 0.1771730780601502 0
vn 0.9634828567504883 0.267769992351532 0
vn 0.9634828567504883 0.267769992351532 0
vn 0.9336758852005005 0.3581192195415497 0
vn 0.9336758852005005 0.3581192195415497 0
vn 0.8945945501327515 0.4468787014484406 0
vn 0.8945945501327515 0.4468787014484406 0
vn 0.8463372588157654 0.5326473712921143 0
vn 0.8463372588157654 0.5326473712921143 0
vn 0.7892829179763794 0.6140297055244446 0
vn 0.7892829179763794 0.6140297055244446 0
vn 0.7240894436836243 0.689706027507782 0
vn 0.7240894436836243 0.689706027507782 0
vn 0.6516717076301575 0.7585011124610901 0
vn 0.6516717076301575 0.7585011124610901 0
vn 0.5731590986251831 0.8194441199302673 0
vn 0.5731590986251831 0.8194441199302673 0
vn 0.489837646484375 0.8718136548995972 0
vn 0.489837646484375 0.8718136548995972 0
vn 0.4030828475952148 0.915163516998291 0
vn 0.4030828475952148 0.915163516998291 0
vn 0.314289391040802 0.9493272304534912 0
vn 0.314289391040802 0.9493272304534912 0
vn 0.2248056977987289 0.9744036197662354 0
vn 0.2248056977987289 0.9744036197662354 0
vn 0.1358784884214401 0.9907255172729492 0
vn 0.1358784884214401 0.9907255172729492 0
vn 0.0486111119389534 0.9988178014755249 0
vn 0.0486111119389534 0.9988178014755249 0
vn 0.0486111119389534 0.9988178014755249 0
f 5/5/5 23/23/23 4/4/4
f 7/7/7 23/23/23 6/6/6
f 23/23/23 5/5/5 6/6/6
f 23/23/23 7/7/7 8/8/8
f 20/20/20 22/22/22 23/23/23
f 20/20/20 21/21/21 22/22/22
f 20/20/20 23/23/23 12/12/12
f 10/10/10 11/11/11 23/23/23
f 9/9/9 10/10/10 23/23/23
f 9/9/9 23/23/23 8/8/8
f 13/13/13 20/20/20 12/12/12
f 14/14/14 20/20/20 13/13/13
f 20/20/20 15/15/15 16/16/16
f 15/15/15 20/20/20 14/14/14
f 17/17/17 20/20/20 16/16/16
f 20/20/20 18/18/18 19/19/19
f 1/1/1 20/20/20 19/19/19
f 20/20/20 2/2/2 3/3/3
f 20/20/20 1/1/1 2/2/2
f 20/20/20 17/17/17 18/18/18
f 12/12/12 23/23/23 11/11/11
f 28/28/28 27/27/27 46/46/46
f 30/30/30 29/29/29 46/46/46
f 46/46/46 29/29/29 28/28/28
f 46/46/46 31/31/31 30/30/30
f 43/43/43 46/46/46 45/45/45
f 43/43/43 45/45/45 44/44/44
f 43/43/43 35/35/35 46/46/46
f 33/33/33 46/46/46 34/34/34
f 32/32/32 46/46/46 33/33/33
f 32/32/32 31/31/31 46/46/46
f 36/36/36 35/35/35 43/43/43
f 37/37/37 36/36/36 43/43/43
f 43/43/43 39/39/39 38/38/38
f 38/38/38 37/37/37 43/43/43
f 40/40/40 39/39/39 43/43/43
f 43/43/43 42/42/42 41/41/41
f 24/24/24 42/42/42 43/43/43
f 43/43/43 26/26/26 25/25/25
f 43/43/43 25/25/25 24/24/24
f 43/43/43 41/41/41 40/40/40
f 35/35/35 34/34/34 46/46/46
f 49/49/49 53/53/53 47/47/47
f 50/50/50 48/48/48 53/53/53
f 51/51/51 52/52/52 50/50/50 49/49/49
f 53/53/53 49/49/49 50/50/50
f 55/55/55 54/54/54 58/58/58 60/60/60
f 60/60/60 58/58/58 59/59/59 57/57/57
f 56/56/56 59/59/59 58/58/58
f 65/65/65 61/61/61 66/66/66
f 65/65/65 69/69/69 62/62/62
f 67/67/67 65/65/65 66/66/66
f 63/63/63 64/64/64 68/68/68 67/67/67
f 68/68/68 69/69/69 65/65/65
f 67/67/67 68/68/68 65/65/65
f 72/72/72 73/73/73 71/71/71 70/70/70
f 76/76/76 77/77/77 75/75/75 74/74/74
f 74/74/74 75/75/75 73/73/73 72/72/72
f 80/80/80 81/81/81 79/79/79 78/78/78
f 84/84/84 85/85/85 83/83/83 82/82/82
f 82/82/82 83/83/83 81/81/81 80/80/80
f 78/78/78 79/79/79 77/77/77 76/76/76
f 86/86/86 87/87/87 85/85/85 84/84/84
f 90/90/90 91/91/91 89/89/89 88/88/88
f 94/94/94 95/95/95 93/93/93 92/92/92
f 92/92/92 93/93/93 91/91/91 90/90/90
f 98/98/98 99/99/99 97/97/97 96/96/96
f 104/104/104 100/100/100 102/102/102
f 100/100/100 101/101/101 99/99/99 98/98/98
f 96/96/96 97/97/97 95/95/95 94/94/94
f 101/101/101 100/100/100 104/104/104 103/103/103
f 88/88/88 89/89/89 87/87/87 86/86/86
